<?xml version="1.0" encoding="UTF-8"?><svg xmlns="http://www.w3.org/2000/svg" viewBox="0 0 133.23 139.08"><defs><style>.d{fill:#ffffff;}.e{fill:#ffffff;}</style></defs><g id="a"/><g id="b"><g id="c"><g><g><path class="e" d="M124.18,107.38l-7.69-18.53h-.78c-.99,1.29-2.3,2.4-3.91,2.93l.41,1.14-9.09,19.63c-.61,1.31-1.24,1.8-2.2,2.16-5.36-2.09-8.28-7.01-10.98-11.94,2.88-1.03,5.35-3.23,5.35-6.24,0-6.05-6.83-6.05-11.89-6.05h-12.8v1.07c5.14,.38,5.43,1.1,5.43,6.24v10.12c0,6.06-1.61,6.88-5.43,7.25-3.97-.93-5.26-2-7.73-7.78l-7.69-18.53h-.78c-.99,1.29-2.3,2.4-3.91,2.93l.41,1.14-9.09,19.63c-.58,1.25-1.17,1.75-2.06,2.11-5.45-2.04-8.4-6.91-11.12-11.88,2.88-1.03,5.35-3.23,5.35-6.24,0-6.05-6.83-6.05-11.89-6.05H9.28v1.07c5.14,.38,5.43,1.1,5.43,6.24v10.12c0,6.89-.54,6.62-5.43,7.38v1.06H26.52v-1.06c-6.62-.46-6.38-2.21-6.38-7.38v-3.81c3.91,.53,3.62,.3,5.56,3.73,1.23,2.13,3.16,5.24,5.26,6.61,3.21,2.05,7.2,1.91,10.81,1.91h8.71v-1.07c-4.49-.49-6.17-.61-3.7-7.19l.74-1.94h8.97l.99,2.4c2.26,5.37,2.02,6.09-1.98,6.74v1.06h32.34v-1.06c-6.62-.46-6.38-2.21-6.38-7.38v-3.81c3.91,.53,3.62,.3,5.56,3.73,1.23,2.13,3.16,5.24,5.26,6.61,3.21,2.05,6.97,1.91,10.65,1.91h8.88v-1.06c-4.48-.49-6.17-.61-3.7-7.19l.74-1.94h8.97l.99,2.4c2.26,5.37,2.02,6.09-1.98,6.74v1.06h15.3v-.98c-3.55-1.02-5.26-1.76-7.93-8Zm-104.04-4.6v-10.88c3.7,0,7.65,1.07,7.65,4.98s-3.83,5.63-7.65,5.9Zm28.16,1.1l3.54-8.83,3.74,8.83h-7.28Zm33.16-1.1v-10.88c3.7,0,7.65,1.07,7.65,4.98s-3.83,5.63-7.65,5.9Zm28.16,1.1l3.54-8.83,3.74,8.83h-7.28Z"/><g><g><path class="e" d="M97.35,138.96c.39,0,.77,0,1.16,0,.38,0,.76,0,1.14,0l.08-.36c.08-.34,.13-.91,.14-1.09v-.02l.02-.36h-.27c-.29,.95-.64,1.5-1.58,1.5-.72,0-.85-.21-.85-.67v-1.31h.3c1.08,0,1.13,.2,1.24,.78h.25c0-.15,0-.29,0-.44,0-.16,0-.31,0-.47,0-.19,0-.37,0-.55,0-.18,0-.35,0-.53h-.23c-.18,.7-.39,.72-1.55,.73h-.02v-1.79h.35c1.33,0,1.51,.19,1.65,.98h.25l.15-1.32c-.25,0-.49,0-.77,0-.4,0-.84,0-1.51,0s-1.16,0-1.53,0c-.27,0-.5,0-.76,0v.21c.9,.15,.94,.36,.94,.99v2.53c0,.63-.04,.84-.94,.99v.21c.38,0,.76,0,1.13,0,.39,0,.78,0,1.17,0Z"/><path class="e" d="M69.17,138.96c.25,0,.52,0,.79,0,.25,0,.49,0,.72,0v-.21c-.9-.16-.9-.37-.9-.99v-2.53c0-.62,0-.84,.93-.99v-.21c-.24,0-.5,0-.76,0-.26,0-.53,0-.78,0s-.52,0-.78,0c-.25,0-.49,0-.72,0v.21c.9,.16,.9,.37,.9,.99v.89h-2.3v-.89c0-.62,0-.84,.94-.99v-.21c-.25,0-.51,0-.77,0-.26,0-.53,0-.78,0s-.52,0-.79,0c-.25,0-.49,0-.72,0v.21c.9,.16,.9,.37,.9,.99v2.53c0,.62,0,.84-.9,.99v.21c.23,0,.47,0,.72,0,.26,0,.53,0,.79,0s.51,0,.78,0c.26,0,.52,0,.77,0v-.21c-.94-.16-.94-.37-.94-.99v-1.15h2.3v1.15c0,.62,0,.84-.94,.99v.21c.25,0,.51,0,.77,0,.26,0,.53,0,.78,0Z"/><path class="e" d="M96.59,134.89h0Z"/><path class="e" d="M82.72,138.1c-.35,.39-.76,.61-1.23,.61-1,0-1.65-.86-1.65-2.2s.65-2.2,1.65-2.2,1.37,.87,1.56,1.53h.22v-1.52c-.58-.19-1.19-.37-1.83-.37-1.82,0-3,1.08-3,2.75,0,1.38,1.25,2.39,2.96,2.39,.67,0,1.27-.1,1.69-.28,.07-.03,.08-.04,.08-.04,.05-.18,.1-.36,.16-.53,.07-.24,.15-.48,.2-.72l.08-.38-.25-.06c-.18,.44-.4,.76-.63,1.02h-.01Z"/><path class="e" d="M78.36,138.97c.2,0,.4,0,.6,0v-.18c-.49-.07-.7-.36-.88-.81l-1.6-4.21h-.22c-.19,.28-.38,.4-.66,.56-.05,.03-.1,.06-.15,.09,.01,.04,.03,.08,.04,.11,.02,.05,.05,.1,.05,.15,0,.02,0,.06-.01,.08l-1.3,3.05c-.18,.44-.44,.89-.97,.94v.21c.16,0,.33,0,.49,0,.4-.01,.79,0,1.19,0,.22,0,.44,0,.66,0v-.18s-.07-.01-.11-.02c-.34-.06-.77-.13-.77-.57,0-.12,.02-.3,.04-.37l.21-.72h1.54l.34,.97v.03c.02,.08,.04,.13,.04,.19,0,.38-.37,.43-.64,.45v.21c.24,0,.48,0,.72,0,.46,0,.92,0,1.37,0Zm-3.23-2.33v-.03l.58-1.61,.63,1.64h-1.21Z"/><path class="e" d="M113.24,134.05c-.17,0-.34,0-.51,0-.38,0-.76,0-1.14,0-.2,0-.41,0-.61,0v.21c.28,.06,.57,.12,.57,.44,0,.09-.05,.21-.07,.31-.01,.04-.02,.09-.03,.13-.09,.32-.22,.67-.37,1.02-.06,.14-.12,.28-.18,.41l-.02,.05-.02-.05c-.1-.25-.24-.54-.38-.82-.22-.45-.43-.88-.43-1.08,0-.31,.34-.37,.6-.42v-.21c-.24,0-.48,0-.72,0-.48,0-.97,0-1.46,0-.23,0-.46,0-.7,0v.21c.53,.17,.8,.26,1.04,.73l.89,1.7c.09,.18,.13,.37,.13,.64v.24c0,.93-.21,.98-1.08,1.2h0v.21c.28,0,.56,0,.84,0,.28,0,.57,0,.84,0s.56,0,.84,0c.28,0,.56,0,.85,0v-.21c-.88-.22-1.08-.27-1.08-1.2v-.36c0-.34,.17-.66,.43-1.15v-.02c.73-1.34,.96-1.58,1.76-1.78v-.21Z"/><path class="e" d="M88.77,138.97c.2,0,.4,0,.6,0v-.18c-.49-.07-.7-.36-.88-.81l-1.6-4.21h-.22c-.19,.28-.38,.4-.66,.56-.05,.03-.1,.06-.15,.09,.01,.04,.03,.08,.04,.11,.02,.05,.05,.1,.05,.15,0,.02,0,.06-.01,.08l-1.3,3.05c-.18,.44-.44,.89-.97,.94v.21c.16,0,.33,0,.49,0,.4-.01,.79,0,1.19,0,.22,0,.44,0,.66,0v-.18s-.07-.01-.11-.02c-.34-.06-.77-.13-.77-.57,0-.12,.02-.3,.04-.37l.21-.72h1.54l.34,.97v.03c.02,.08,.04,.13,.04,.19,0,.38-.37,.43-.64,.45v.21c.24,0,.48,0,.72,0,.46,0,.92,0,1.37,0Zm-3.23-2.33v-.03l.58-1.61,.63,1.64h-1.21Z"/><path class="e" d="M106.12,138.96c.25,0,.51,0,.77,0,.25,0,.5,0,.75,0v-.21c-.83-.08-.96-.52-.98-.93-.02-.29-.04-.59-.06-.89-.04-.53-.08-1.07-.08-1.61,0-.81,.13-.98,.87-1.09v-.21c-.17,0-.35,0-.53,0-.4,.01-.79,0-1.19,0-.21,0-.41,0-.62,0v.16c.06,.05,.1,.09,.1,.2,0,.12-.06,.25-.11,.36-.02,.04-1.12,2.8-1.12,2.8l-.02-.05-1.1-2.88c-.03-.07-.05-.14-.05-.21,0-.13,.06-.18,.11-.22h0v-.15c-.11,0-.22,0-.34,0-.14,0-.3,0-.5,0-.23,0-.46,0-.69,0-.22,0-.45,0-.67,0v.21c.68,.12,.79,.27,.79,.69,0,.18-.04,.64-.09,.95l-.19,1.28c-.13,.85-.28,1.47-1.08,1.59v.21c.21,0,.41,0,.62,0,.24,0,.5,0,.79,0,.34,0,.55,0,.71,0,.08,0,.14,0,.19,0v-.21c-.82-.14-.86-.34-.86-1.01,0-.47,.21-2.9,.21-2.9l1.6,4.19h.33l1.72-4.42s.03,.91,.04,1.29c.03,.69,.05,1.4,.05,2.09,0,.61-.19,.65-.7,.73-.06,.01-.13,.02-.2,.03v.21c.27,0,.55,0,.82,0,.25,0,.49,0,.7,0Z"/><path class="e" d="M34.04,138.76c-.84-.3-1.67-1.36-2.16-2.33v-.02h.01c.64-.29,.97-.68,.97-1.18,0-1.24-1.95-1.24-2.68-1.24-.63,0-1.28,.02-2.01,.06v.21c.9,.16,.9,.37,.9,.98v2.53c0,.62,0,.83-.97,.98v.21c.27,0,.55,0,.81,0,.26,0,.52,0,.77,0,.22,0,.46,0,.72,0,.31,0,.67,0,1.08,0v-.21c-1.19-.16-1.19-.35-1.19-.98v-1.08h.06c.21,.04,.44,.06,.62,.37l.51,.88c.33,.57,.76,1.02,2.33,1.02h.25v-.22Zm-3.73-2.34h-.02v-2.12h.02c.37,0,1.23,.09,1.23,.97,0,.66-.39,1.02-1.22,1.15Z"/><path class="e" d="M45.32,138.96c.39,0,.77,0,1.16,0,.38,0,.76,0,1.14,0l.08-.36c.08-.34,.13-.91,.14-1.09v-.02l.02-.36h-.27c-.29,.95-.64,1.5-1.58,1.5-.72,0-.85-.21-.85-.67v-1.31h.3c1.08,0,1.13,.2,1.24,.78h.25c0-.15,0-.29,0-.44,0-.16,0-.31,0-.47,0-.19,0-.37,0-.55,0-.18,0-.35,0-.53h-.23c-.18,.7-.39,.72-1.55,.73h-.02v-1.79h.35c1.33,0,1.51,.19,1.65,.98h.25l.15-1.32c-.25,0-.49,0-.77,0-.4,0-.84,0-1.51,0s-1.16,0-1.53,0c-.27,0-.5,0-.76,0v.21c.9,.15,.94,.36,.94,.99v2.53c0,.63-.04,.84-.94,.99h0v.21c.39,0,1.91-.01,2.3-.01Z"/><path class="e" d="M36.08,138.96c.39,0,.77,0,1.16,0,.38,0,.76,0,1.14,0l.08-.36c.08-.34,.13-.91,.14-1.09v-.02l.02-.36h-.27c-.29,.95-.64,1.5-1.58,1.5-.72,0-.85-.21-.85-.67v-1.31h.3c1.08,0,1.13,.2,1.24,.78h.25c0-.15,0-.29,0-.44,0-.16,0-.31,0-.47,0-.19,0-.37,0-.55,0-.18,0-.35,0-.53h-.23c-.18,.7-.39,.72-1.55,.73h-.02v-1.79h.35c1.33,0,1.51,.19,1.65,.98h.25l.15-1.32c-.25,0-.49,0-.77,0-.4,0-.84,0-1.51,0s-1.16,0-1.53,0c-.27,0-.5,0-.76,0v.21c.9,.15,.94,.36,.94,.99v2.53c0,.63-.04,.84-.94,.99h0v.21c.39,0,1.91-.01,2.3-.01Z"/><path class="e" d="M40.79,139.08c1.29,0,2.06-.54,2.06-1.43s-.66-1.2-1.31-1.53c-.55-.28-1.06-.55-1.06-1.11,0-.39,.29-.69,.67-.69,.81,0,.97,.79,1.08,1.37h.23l.11-1.4c-.42-.22-.79-.34-1.43-.34-1.07,0-1.83,.61-1.83,1.48s.71,1.21,1.33,1.51c.53,.26,1.04,.51,1.04,1.03,0,.47-.28,.75-.76,.75-.96,0-1.42-.95-1.7-1.78h-.22l.2,1.7c.53,.3,1.04,.44,1.58,.44Z"/><path class="e" d="M63.24,138.1c-.35,.39-.76,.61-1.23,.61-1,0-1.65-.86-1.65-2.2s.65-2.2,1.65-2.2,1.37,.87,1.56,1.53h.22v-1.52c-.58-.19-1.19-.37-1.83-.37-1.82,0-3,1.08-3,2.75,0,1.38,1.25,2.39,2.96,2.39,.67,0,1.27-.1,1.69-.28,.07-.03,.08-.04,.08-.04,.05-.18,.1-.36,.16-.53,.07-.24,.15-.48,.2-.72l.08-.38-.25-.06c-.18,.44-.4,.76-.63,1.02h-.01Z"/><path class="e" d="M57.29,136.43v-.02h.01c.64-.29,.97-.68,.97-1.18,0-1.24-1.95-1.24-2.68-1.24-.63,0-1.28,.02-2.01,.06v.21c.9,.16,.9,.37,.9,.98v2.53c0,.6,0,.83-.9,.98,0,0,0,.21,0,.21,.25,0,.49,0,.73,0,.26,0,.52,0,.77,0,.22,0,.46,0,.72,0,.31,0,.67,0,1.08,0v-.21c-1.19-.16-1.19-.35-1.19-.98v-1.08h.06c.21,.04,.44,.06,.62,.37l.51,.88c.33,.57,.76,1.08,2.33,1.08h.25l.05-.21c-.86-.27-1.71-1.41-2.21-2.39Zm-1.57-.02h-.02v-2.12h.02c.37,0,1.23,.09,1.23,.97,0,.66-.39,1.02-1.22,1.15Z"/></g><path class="e" d="M53.7,138.98v-.18c-.5-.07-.71-.38-.88-.81l-1.6-4.2h-.22c-.18,.28-.38,.39-.65,.55-.05,.03-.1,.06-.15,.09,.01,.04,.03,.08,.04,.11,.02,.05,.05,.1,.05,.16,0,.02,0,.05-.01,.08l-1.3,3.05c-.18,.44-.44,.91-.97,.96v.18c.16,0,.33,0,.49,0,.39,0,.79,0,1.19,0,.22,0,.44,0,.66,0v-.18s-.07-.01-.11-.02c-.34-.06-.77-.13-.77-.57,0-.12,.02-.3,.04-.37l.21-.72h1.54l.34,.96v.03c.02,.08,.04,.13,.04,.19,0,.38-.37,.43-.64,.45v.21c.24,0,.48,0,.72,0,.46,0,.92,0,1.37,0,.2,0,.4,0,.6,0Zm-3.82-2.34v-.03l.58-1.61,.63,1.64h-1.21Z"/><path class="e" d="M89.31,134.06v.18c.97,.16,.97,.37,.97,.98v2.55c0,.62,0,.86-.97,1.01v.19c.25,0,.49,0,.74,0,.25,0,.51,0,.76,0s.5,0,.76,0,.51,0,.76,0c1.68,0,2.81-1,2.81-2.48,0-1.56-1.43-2.5-3.82-2.5-.71,0-1.39,.02-2,.06Zm2.19,.31h.02c1.37,.05,2.21,.95,2.21,2.34,0,.95-.46,1.9-1.34,1.9-.69,0-.9-.36-.9-.74v-3.5Z"/></g><g><path class="e" d="M115.64,129.83c.38,0,.76,0,1.14,0l.08-.36c.08-.34,.13-.91,.14-1.09v-.02l.02-.36h-.27c-.29,.95-.64,1.5-1.58,1.5-.73,0-.85-.21-.85-.67v-1.31h.3c1.08,0,1.13,.2,1.24,.78h.25c0-.15,0-.29,0-.44,0-.16,0-.31,0-.47,0-.19,0-.37,0-.55,0-.18,0-.35,0-.53h-.23c-.18,.7-.39,.72-1.55,.74h-.02v-1.79h.35c1.33,0,1.51,.19,1.65,.98h.25l.15-1.32c-.25,0-.49,0-.77,0-.4,0-.84,0-1.51,0s-1.16,0-1.53,0c-.27,0-.5,0-.76,0v.21c.9,.15,.94,.36,.94,.99v2.53c0,.63-.04,.84-.94,.99v.21c.38,0,.76,0,1.14,0,.39,0,.77,0,1.16,0s.77,0,1.16,0Z"/><path class="e" d="M79.91,129.63v.21c.16,0,.33,0,.49,0,.4,0,.79,0,1.19,0,.22,0,.44,0,.66,0v-.18s-.07-.01-.11-.02c-.34-.06-.77-.13-.77-.57,0-.12,.02-.3,.04-.37l.21-.72h1.54l.34,.96v.03c.02,.08,.04,.13,.04,.19,0,.38-.37,.43-.64,.45v.21c.24,0,.48,0,.72,0,.46,0,.92,0,1.37,0,.2,0,.4,0,.6,0v-.18c-.5-.07-.71-.38-.88-.81l-1.6-4.2h-.22c-.18,.28-.38,.39-.65,.55-.05,.03-.1,.06-.15,.09,.01,.04,.03,.08,.04,.11,.02,.05,.05,.1,.05,.16,0,.02,0,.05-.01,.08l-1.3,3.05c-.18,.44-.44,.89-.97,.94Zm1.89-2.16l.57-1.61,.63,1.64h-1.21v-.03Z"/><path class="e" d="M42.65,126.1c.05-.72,.1-.85,.71-.99v-.21c-.16,0-.35,0-.54,0-.39,0-.82,.01-1.24,0-.16,0-.33,0-.49,0v.21h0c.77,.16,1.06,.21,1.06,1.15v1.75c0,.96-.42,1.41-1.31,1.41s-1.41-.44-1.41-1.18v-2.14c0-.62,0-.84,.97-.99v-.21c-.27,0-.55,0-.81,0-.26,0-.52,0-.77,0s-.52,0-.79,0c-.25,0-.49,0-.72,0v.21c.9,.16,.9,.37,.9,.99v2.13c0,1.54,1.62,1.7,2.31,1.7,.4,0,.84-.08,1.2-.31,.02-.01,.05-.02,.07-.03,.18-.12,.34-.29,.46-.51h0c.12-.24,.21-.53,.24-.89l.15-2.09Z"/><path class="e" d="M109.86,129.57c-1,0-1.65-.86-1.65-2.2s.65-2.2,1.65-2.2,1.37,.87,1.56,1.53h.22v-1.52c-.57-.19-1.19-.37-1.83-.37-1.82,0-3,1.08-3,2.75,0,1.38,1.25,2.39,2.96,2.39,.68,0,1.27-.1,1.69-.27,.07-.03,.08-.04,.08-.05,.05-.18,.1-.36,.16-.54,.08-.24,.15-.48,.2-.72l.08-.38-.25-.06c-.18,.44-.4,.76-.63,1.02h-.01c-.35,.41-.76,.63-1.23,.63Z"/><path class="e" d="M73.71,129.83c.22,0,.45,0,.67,0v-.21c-.97-.17-1.13-.29-1.13-1.45v-2.08l.04,.04,3.47,3.91,.45-.22c-.03-.37-.03-.7-.03-1.66,0-.98,.03-1.56,.06-1.81v-.03c.06-.65,.11-1.12,.73-1.15v-.27c-.16,0-.36,0-.56,0-.22,0-.46,0-.65,0s-.37,0-.55,0c-.18,0-.35,0-.53,0v.25c.85,.12,1.07,.15,1.11,1.04,0,.17,.02,.34,.03,.5,.02,.32,.03,.62,.03,.94v.88l-2.66-3.12c-.13-.14-.21-.29-.29-.45v-.02c-.26,0-.5,0-.73,0-.19,0-.37,0-.52,0-.09,0-.19,0-.3,0-.13,0-.27,0-.44,0v.21c.74,.22,1,.33,1,1.08v.39c-.01,.19-.02,.43-.03,.69-.03,.62-.05,1.32-.11,1.7-.06,.42-.22,.54-.84,.68v.18c.18,0,.35,0,.53,0,.41-.01,.82,0,1.24,0Z"/><path class="e" d="M102.53,129.83c.22,0,.45,0,.67,0v-.21c-.97-.17-1.13-.29-1.13-1.45v-2.08l.04,.04,3.47,3.91,.45-.22c-.03-.37-.03-.7-.03-1.66,0-.98,.03-1.56,.06-1.81v-.03c.06-.65,.11-1.12,.73-1.15v-.27c-.16,0-.36,0-.56,0-.22,0-.46,0-.65,0s-.37,0-.55,0c-.18,0-.35,0-.53,0v.25c.85,.12,1.07,.15,1.11,1.04,0,.17,.02,.34,.03,.5,.02,.32,.03,.62,.03,.94v.88l-2.66-3.12c-.13-.14-.21-.29-.29-.45v-.02c-.26,0-.5,0-.73,0-.19,0-.37,0-.52,0-.09,0-.19,0-.3,0-.13,0-.27,0-.44,0v.21c.74,.22,1,.33,1,1.08v.39c-.01,.19-.02,.43-.03,.69-.03,.62-.05,1.32-.11,1.7-.06,.42-.22,.54-.84,.68v.18c.18,0,.35,0,.53,0,.41-.01,.82,0,1.24,0Z"/><path class="e" d="M85.47,124.92v.18c.97,.16,.97,.37,.97,.98v2.55c0,.62,0,.84-.97,.99v.21c.25,0,.49,0,.74,0,.25,0,.51,0,.76,0s.5,0,.76,0,.51,0,.76,0c1.68,0,2.81-1,2.81-2.48,0-1.56-1.43-2.5-3.82-2.5-.71,0-1.39,.02-2,.06Zm2.19,.31h.02c1.37,.05,2.21,.95,2.21,2.34,0,.95-.46,1.9-1.34,1.9-.69,0-.9-.36-.9-.74v-3.5Z"/><path class="e" d="M117.38,124.92v.18c.97,.16,.97,.37,.97,.98v2.55c0,.62,0,.84-.97,.99v.21c.25,0,.49,0,.74,0,.25,0,.51,0,.76,0s.5,0,.76,0,.51,0,.76,0c1.68,0,2.81-1,2.81-2.48,0-1.56-1.43-2.5-3.82-2.5-.71,0-1.39,.02-2,.06Zm2.19,.31h.02c1.37,.05,2.21,.95,2.21,2.34,0,.95-.46,1.9-1.34,1.9-.69,0-.9-.36-.9-.74v-3.5Z"/><path class="e" d="M92.18,124.92c-.37,0-.66,0-.9,0-.15,0-.28,0-.39,0v.18l.07,.03c.27,.1,.45,.16,.63,.58l1.81,4.14,.48,.1,1.45-3.34c.03-.07,.06-.13,.08-.2,.25-.58,.5-1.18,1.09-1.29v-.21c-.1,0-.21,0-.35,0-.21,0-.48,0-.8,0-.29,0-.49,0-.69,0-.16,0-.31,0-.48,0v.21c.05,.01,.11,.02,.16,.03,.33,.05,.68,.11,.68,.44,0,.29-.11,.77-.32,1.37l-.64,1.76-.82-2.05c-.04-.11-.09-.21-.13-.31-.13-.31-.24-.56-.24-.8,0-.37,.38-.41,.69-.45h0v-.21c-.13,0-.29,0-.47,0-.25,0-.57,0-.93,0Z"/><path class="e" d="M97.4,125.2s-.1,.06-.15,.09c.01,.04,.03,.08,.04,.11,.02,.05,.05,.1,.05,.16,0,.02,0,.05-.01,.08l-1.3,3.05c-.18,.44-.44,.89-.97,.94v.21c.16,0,.33,0,.49,0,.4,0,.79,0,1.19,0,.22,0,.44,0,.66,0v-.18s-.07-.01-.11-.02c-.34-.06-.77-.13-.77-.57,0-.12,.02-.3,.04-.37l.21-.72h1.54l.34,.96v.03c.02,.08,.04,.13,.04,.19,0,.38-.37,.43-.64,.45v.21c.24,0,.48,0,.72,0,.46,0,.92,0,1.37,0,.2,0,.4,0,.6,0v-.18c-.49-.07-.7-.36-.88-.81l-1.6-4.2h-.22c-.18,.28-.38,.39-.65,.55Zm.74,2.3h-1.21v-.03l.58-1.61,.63,1.64Z"/><path class="e" d="M27.89,126.58c.44-1.26,1.09-1.29,1.73-1.32h.02v3.38c0,.41,0,.83-1.07,.99v.21c.34,0,.66,0,.95,0,.26,0,.5,0,.73,0s.47,0,.73,0c.29,0,.61,0,.95,0v-.21c-1.07-.16-1.07-.58-1.07-.99v-3.38h.02c.63,.03,1.29,.07,1.73,1.32l.22-.02-.2-1.79h-.17c-.11,.1-.17,.15-.36,.15h-3.68c-.09,0-.16-.01-.22-.04-.05-.02-.08-.05-.13-.09l-.02-.02h-.17l-.2,1.79,.22,.02Z"/><path class="e" d="M53.59,124.92c-.69,0-1.16,0-1.53,0-.27,0-.5,0-.76,0v.21c.9,.15,.94,.36,.94,.99v2.53c0,.63-.04,.84-.94,.99v.21c.38,0,.76,0,1.14,0,.39,0,.77,0,1.16,0s.77,0,1.16,0c.38,0,.76,0,1.14,0l.08-.36c.08-.34,.13-.91,.14-1.09v-.02l.02-.36h-.27c-.29,.95-.64,1.5-1.58,1.5-.73,0-.85-.21-.85-.67v-1.31h.3c1.08,0,1.13,.2,1.24,.78h.25c0-.15,0-.29,0-.44,0-.16,0-.31,0-.47,0-.19,0-.37,0-.55,0-.18,0-.35,0-.53h-.23c-.18,.7-.39,.72-1.55,.74h-.02v-1.79h.35c1.33,0,1.51,.19,1.65,.98h.25l.15-1.32c-.25,0-.49,0-.77,0-.4,0-.84,0-1.51,0Z"/><path class="e" d="M58.17,124.92c-.24,0-.5,0-.77,0-.27,0-.54,0-.81,0v.21c.97,.16,.97,.37,.97,.99v2.53c0,.62,0,.84-.97,.99v.21c.27,0,.55,0,.81,0,.26,0,.52,0,.77,0s.5,0,.77,0c.27,0,.54,0,.81,0v-.21c-.97-.16-.97-.37-.97-.99v-2.53c0-.62,0-.84,.97-.99v-.21c-.27,0-.54,0-.81,0-.26,0-.52,0-.77,0Z"/><path class="e" d="M49.33,129.82c.25,0,.51,0,.77,0,.25,0,.5,0,.75,0v-.21c-.83-.08-.96-.52-.98-.93-.02-.29-.04-.59-.06-.89-.04-.53-.08-1.07-.08-1.61,0-.81,.13-.98,.87-1.09v-.21c-.17,0-.35,0-.53,0-.4,.01-.79,0-1.19,0-.21,0-.41,0-.62,0v.16c.06,.05,.1,.09,.1,.2,0,.12-.06,.25-.11,.36-.02,.04-1.12,2.8-1.12,2.8l-.02-.05-1.1-2.88c-.03-.07-.05-.14-.05-.21,0-.13,.06-.18,.11-.22h0v-.15c-.11,0-.22,0-.34,0-.14,0-.3,0-.5,0-.23,0-.46,0-.69,0-.22,0-.45,0-.67,0v.21c.68,.12,.79,.27,.79,.69,0,.18-.04,.64-.09,.95l-.19,1.28c-.13,.85-.28,1.47-1.08,1.59v.21c.21,0,.41,0,.62,0,.24,0,.5,0,.79,0,.34,0,.55,0,.71,0,.08,0,.14,0,.19,0v-.21c-.82-.14-.86-.34-.86-1.01,0-.47,.21-2.9,.21-2.9l1.6,4.19h.33l1.72-4.42s.03,.91,.04,1.29c.03,.69,.05,1.4,.05,2.09,0,.61-.19,.65-.7,.73-.06,.01-.13,.02-.2,.03v.21c.27,0,.55,0,.82,0,.25,0,.49,0,.7,0Z"/><path class="e" d="M25.6,129.82c.24,0,.5,0,.77,0,.27,0,.54,0,.81,0v-.21c-.97-.16-.97-.37-.97-.99v-2.53c0-.62,0-.84,.97-.99v-.21c-.27,0-.55,0-.81,0-.26,0-.52,0-.77,0s-.5,0-.77,0c-.27,0-.54,0-.81,0v.21c.97,.16,.97,.37,.97,.99v2.53c0,.62,0,.84-.97,.99v.21c.27,0,.55,0,.81,0,.26,0,.52,0,.77,0Z"/><path class="e" d="M23.83,129.84h.25l.05-.17c-.86-.27-1.71-1.39-2.21-2.37v-.02h.01c.64-.29,.97-.68,.97-1.18,0-1.24-1.94-1.24-2.68-1.24-.63,0-1.28,.02-2.01,.06v.21c.9,.16,.9,.37,.9,.98v2.53c0,.62,0,.83-.97,.98v.21h3.38v-.21c-1.19-.16-1.19-.35-1.19-.98v-1.08h.05c.22,.03,.44,.06,.62,.37l.51,.88c.33,.57,.76,1.02,2.33,1.02Zm-3.49-2.56h-.02v-2.12h.02c.37,0,1.23,.09,1.23,.97,0,.66-.39,1.02-1.22,1.15Z"/><path class="e" d="M34.92,129.94c1.29,0,2.06-.54,2.06-1.43s-.66-1.2-1.31-1.53c-.55-.28-1.06-.55-1.06-1.11,0-.39,.29-.69,.67-.69,.81,0,.97,.79,1.08,1.37h.23l.11-1.4c-.42-.22-.79-.34-1.43-.34-1.07,0-1.83,.61-1.83,1.48s.71,1.21,1.33,1.51c.53,.26,1.04,.51,1.04,1.03,0,.46-.29,.75-.76,.75-.97,0-1.42-.95-1.7-1.78h-.22l.2,1.7c.53,.3,1.04,.44,1.58,.44Z"/><path class="e" d="M62.59,127.41c.14,.2,.26,.39,.37,.57,.92,1.43,1.24,1.85,3.36,1.85l.02-.15c-.67-.21-.86-.29-2.47-2.44l-.35-.48h.01c.07-.09,.15-.17,.21-.24,.68-.72,1.14-1.19,2.21-1.41v-.21c-.13,0-.27,0-.42,0-.17,0-.35,0-.52,0-.24,0-.48,0-.73,0-.23,0-.47,0-.7,0v.21c.12,.02,.41,.09,.41,.3,0,.28-.34,.69-.74,1.16-.23,.27-.47,.55-.67,.84Z"/><path class="e" d="M61.83,124.92c-.25,0-.52,0-.79,0-.25,0-.49,0-.72,0v.21c.9,.16,.9,.37,.9,.99v2.53c0,.62,0,.83-.9,.99v.21c.23,0,.47,0,.72,0,.26,0,.53,0,.79,0s.52,0,.78,0c.25,0,.49,0,.72,0v-.21c-.9-.16-.9-.37-.9-.99v-2.53c0-.62,0-.83,.9-.99v-.21c-.23,0-.47,0-.72,0-.26,0-.53,0-.78,0Z"/><path class="e" d="M71.96,129.84v-.18c-.5-.07-.71-.38-.88-.81l-1.6-4.2h-.22c-.18,.28-.38,.39-.65,.55-.05,.03-.1,.06-.15,.09,.01,.04,.03,.08,.04,.11,.02,.05,.05,.1,.05,.16,0,.02,0,.05-.01,.08l-1.3,3.05c-.18,.44-.44,.91-.97,.96v.18c.16,0,.33,0,.49,0,.39,0,.79,0,1.19,0,.22,0,.44,0,.66,0v-.18s-.07-.01-.11-.02c-.34-.06-.77-.13-.77-.57,0-.12,.02-.3,.04-.37l.21-.72h1.54l.34,.96v.03c.02,.08,.04,.13,.04,.19,0,.38-.37,.43-.64,.45v.21c.24,0,.48,0,.72,0,.46,0,.92,0,1.37,0,.2,0,.4,0,.6,0Zm-3.82-2.34v-.03l.58-1.61,.63,1.64h-1.21Z"/></g></g><polygon class="d" points="133.23 16.25 132.64 14.02 37.14 39.6 74.18 2.56 72.55 .92 35.5 37.97 45.52 .6 43.29 0 33.27 37.37 24.87 6.03 22.64 6.62 31.04 37.97 10.03 16.96 8.39 18.59 29.41 39.6 2.04 32.27 1.45 34.5 28.81 41.84 0 49.56 .6 51.79 29.41 44.07 9.38 64.1 11.01 65.73 31.04 45.7 23.35 74.41 25.58 75 33.27 46.3 41.67 77.65 43.9 77.05 35.5 45.7 62.86 73.06 64.5 71.43 37.14 44.07 87.75 57.63 88.34 55.4 37.74 41.84 133.23 16.25"/></g></g></g></svg>
