<svg xmlns="http://www.w3.org/2000/svg" xmlns:xlink="http://www.w3.org/1999/xlink" viewBox="0 0 16 12">
  <defs>
    <style>
      .cls-1{fill:none;}.cls-2{clip-path:url(#clip-path_b-link_icon_white);}.cls-3{fill:#ad181f}
    </style>
    <clipPath id="clip-path_b-link_icon_white" transform="translate(1.5 -1.47)">
      <rect class="cls-1" style="fill:none;" x="2.52" width="12.9" height="9.45"/>
    </clipPath>
  </defs>
  <g class="cls-3" id="レイヤー_2" data-name="レイヤー 2" style="fill:#ad181f">
    <g id="レイヤー_1-2" data-name="レイヤー 1">
      <path d="M10,5a1,1,0,0,1,1,1v4a1,1,0,0,1-1,1H2a1,1,0,0,1-1-1V6A1,1,0,0,1,2,5h8m0-1H2A2,2,0,0,0,0,6v4a2,2,0,0,0,2,2h8a2,2,0,0,0,2-2V6a2,2,0,0,0-2-2Z" transform="translate(1.5 -1.47)"/>
      <g class="cls-2" style="clip-path:url(#clip-path_b-link_icon_white);">
        <path d="M10.5,2.47a3,3,0,0,1,3,3v4a3,3,0,0,1-3,3h-8a3,3,0,0,1-3-3v-4a3,3,0,0,1,3-3h8m0-1h-8a4,4,0,0,0-4,4v4a4,4,0,0,0,4,4h8a4,4,0,0,0,4-4v-4a4,4,0,0,0-4-4Z" transform="translate(1.5 -1.47)"/>
      </g>
    </g>
  </g>
</svg>
